<svg width="151" height="29" viewBox="0 0 151 29" fill="none" xmlns="http://www.w3.org/2000/svg">
<g opacity="0.5">
<path opacity="0.5" d="M13.5802 27.4678C20.4492 27.4678 26.0176 21.755 26.0176 14.7078C26.0176 7.66068 20.4492 1.94785 13.5802 1.94785C6.71123 1.94785 1.14282 7.66068 1.14282 14.7078C1.14282 21.755 6.71123 27.4678 13.5802 27.4678Z" stroke="#006CFF" stroke-width="2" stroke-linejoin="round"/>
</g>
<path d="M13.5804 23.2145C18.1598 23.2145 21.8721 19.4059 21.8721 14.7078C21.8721 10.0097 18.1598 6.20117 13.5804 6.20117C9.00111 6.20117 5.28882 10.0097 5.28882 14.7078C5.28882 19.4059 9.00111 23.2145 13.5804 23.2145Z" fill="#006CFF"/>
<path d="M55.0389 25.3412C60.763 25.3412 65.4034 20.5805 65.4034 14.7078C65.4034 8.8352 60.763 4.07449 55.0389 4.07449C49.3147 4.07449 44.6743 8.8352 44.6743 14.7078C44.6743 20.5805 49.3147 25.3412 55.0389 25.3412Z" fill="#FC3E39"/>
<path d="M97.5335 25.3412C103.258 25.3412 107.898 20.5805 107.898 14.7078C107.898 8.8352 103.258 4.07449 97.5335 4.07449C91.8093 4.07449 87.1689 8.8352 87.1689 14.7078C87.1689 20.5805 91.8093 25.3412 97.5335 25.3412Z" fill="#171717"/>
<path d="M140.028 25.3412C145.752 25.3412 150.392 20.5805 150.392 14.7078C150.392 8.8352 145.752 4.07449 140.028 4.07449C134.304 4.07449 129.663 8.8352 129.663 14.7078C129.663 20.5805 134.304 25.3412 140.028 25.3412Z" fill="#FFF600"/>
</svg>
