<svg width="1198" height="58" viewBox="0 0 1198 58" fill="none" xmlns="http://www.w3.org/2000/svg">
<path d="M1197.05 0.635742H16.1948V1.80464H1197.05V0.635742Z" fill="#F6F7F8"/>
<path d="M1134.85 32.2192H1169.85C1170.07 32.2235 1170.29 32.2718 1170.5 32.3613C1170.7 32.4508 1170.89 32.5797 1171.04 32.7407C1171.2 32.9018 1171.32 33.0918 1171.4 33.2998C1171.48 33.5079 1171.52 33.7298 1171.52 33.9531V55.6274C1171.52 55.8508 1171.48 56.0727 1171.4 56.2808C1171.32 56.4888 1171.2 56.6788 1171.04 56.8398C1170.89 57.0009 1170.7 57.1298 1170.5 57.2192C1170.29 57.3087 1170.07 57.357 1169.85 57.3613H1134.85C1134.63 57.357 1134.41 57.3087 1134.2 57.2192C1134 57.1298 1133.81 57.0009 1133.66 56.8398C1133.5 56.6788 1133.38 56.4888 1133.3 56.2808C1133.22 56.0727 1133.18 55.8508 1133.18 55.6274V33.9531C1133.18 33.7298 1133.22 33.5079 1133.3 33.2998C1133.38 33.0918 1133.5 32.9018 1133.66 32.7407C1133.81 32.5797 1134 32.4508 1134.2 32.3613C1134.41 32.2718 1134.63 32.2235 1134.85 32.2192Z" fill="url(#paint0_linear_8_525)"/>
<path d="M1163.16 49.4453L1162.9 48.1504H1160.17L1159.72 49.4453H1157.48L1160.69 41.3804C1160.76 41.1804 1160.9 41.0094 1161.08 40.8926C1161.25 40.7758 1161.47 40.7195 1161.68 40.7314H1163.41L1165.13 49.4463L1163.16 49.4453ZM1161.92 43.1011L1160.79 46.3623H1162.56L1161.92 43.1011ZM1154.63 43.2153C1154.63 44.1673 1157.63 44.3711 1157.63 46.5601C1157.63 48.6681 1155.42 49.4434 1153.95 49.4434C1153.12 49.4571 1152.29 49.2949 1151.52 48.9673L1151.84 47.0771C1152.72 47.7971 1155.39 48.0024 1155.39 46.8594C1155.39 45.7164 1152.42 45.6892 1152.42 43.5132C1152.42 41.2012 1154.95 40.7251 1156.02 40.7251C1156.68 40.742 1157.33 40.8662 1157.95 41.0923L1157.64 42.9014C1156.73 42.3894 1154.63 42.2672 1154.63 43.2192L1154.63 43.2153ZM1148.05 49.4453L1149.39 40.73H1151.54L1150.2 49.4453H1148.05ZM1142.89 49.4453L1141.03 41.8833C1141.36 42.0892 1141.67 42.3185 1141.97 42.5693C1142.86 43.3369 1143.55 44.3238 1143.95 45.4341L1144.19 46.7251L1146.24 40.7314H1148.56L1145.14 49.4463L1142.89 49.4453ZM1139.1 40.9692L1139 40.9395L1139.1 40.9692ZM1138.88 40.9043L1138.83 40.8911L1138.88 40.9043ZM1139.41 41.0742L1139.28 41.0293L1139.41 41.0742ZM1140.9 41.7993C1140.83 41.758 1140.76 41.7182 1140.7 41.6802C1140.76 41.7242 1140.83 41.7622 1140.9 41.8042L1140.9 41.7993ZM1140.38 41.5093C1140.33 41.4793 1140.27 41.4474 1140.21 41.4194C1140.26 41.4524 1140.32 41.4842 1140.38 41.5142L1140.38 41.5093ZM1139.85 41.2524L1139.73 41.2012L1139.85 41.2524Z" fill="#494CA3"/>
<path d="M1143.95 45.4382L1143.22 41.5203C1143.18 41.2841 1143.06 41.0714 1142.87 40.9255C1142.68 40.7796 1142.44 40.7119 1142.2 40.7356H1138.81L1138.77 40.8826C1139.95 41.1999 1141.04 41.7774 1141.96 42.5725C1142.86 43.3402 1143.54 44.3275 1143.95 45.4382Z" fill="#FFC000"/>
<path d="M1076.8 32.3804H1111.53C1111.98 32.3924 1112.41 32.5814 1112.72 32.9062C1113.03 33.2311 1113.2 33.6654 1113.19 34.1143V55.7871C1113.2 56.236 1113.03 56.6703 1112.72 56.9951C1112.41 57.32 1111.98 57.5089 1111.53 57.521H1076.8C1076.35 57.5089 1075.92 57.32 1075.61 56.9951C1075.3 56.6703 1075.13 56.236 1075.14 55.7871V34.1152C1075.13 33.6662 1075.3 33.2318 1075.61 32.9067C1075.92 32.5817 1076.35 32.3924 1076.8 32.3804Z" fill="#F1F1F1"/>
<path d="M1075.56 56.9302C1075.29 56.6094 1075.15 56.2055 1075.15 55.7891V34.1152C1075.14 33.6662 1075.31 33.2318 1075.62 32.9067C1075.93 32.5817 1076.35 32.3924 1076.8 32.3804H1111.53C1111.96 32.3813 1112.36 32.5478 1112.66 32.8442L1075.56 56.9302H1075.56Z" fill="white" fill-opacity="0.73"/>
<path d="M1089.79 50.3453L1091.09 47.9952L1090.37 42.3511H1092.14L1092.42 45.6915L1094.16 42.3511H1095.99L1091.78 50.3453H1089.79ZM1084.24 46.1295C1084.51 44.7555 1085.84 44.3194 1087.8 44.3194C1087.92 43.7084 1087.53 43.5552 1086.87 43.5782C1086.28 43.6065 1085.71 43.7397 1085.17 43.9713L1085.33 42.5982C1085.97 42.3981 1086.64 42.2807 1087.31 42.2491C1088.54 42.2271 1089.9 42.6185 1089.59 44.2115L1088.83 47.9615H1087.06L1087.18 47.3931C1086.97 47.6053 1086.73 47.7746 1086.45 47.8907C1086.18 48.0068 1085.89 48.0675 1085.59 48.0694C1084.76 48.0654 1084.01 47.5191 1084.24 46.1251L1084.24 46.1295ZM1086.05 46.0421C1085.99 46.121 1085.96 46.2145 1085.96 46.3111C1085.95 46.4077 1085.98 46.5034 1086.03 46.5865C1086.08 46.6695 1086.15 46.7366 1086.24 46.7794C1086.32 46.8221 1086.42 46.8385 1086.52 46.8272C1086.74 46.837 1086.95 46.7673 1087.12 46.6309C1087.29 46.4946 1087.41 46.3011 1087.45 46.0855C1087.48 45.917 1087.51 45.75 1087.55 45.5855H1087.1C1086.9 45.567 1086.7 45.5987 1086.52 45.6778C1086.34 45.7569 1086.17 45.8806 1086.05 46.0382V46.0421ZM1078.14 47.9615L1079.6 40.7891H1082.91C1083.2 40.7865 1083.5 40.8547 1083.76 40.9879C1084.02 41.121 1084.25 41.3152 1084.42 41.5543C1084.59 41.7934 1084.71 42.0703 1084.75 42.3619C1084.79 42.6535 1084.77 42.9511 1084.67 43.2301C1084.58 43.8859 1084.25 44.4853 1083.74 44.918C1083.24 45.3507 1082.6 45.5881 1081.94 45.5855H1080.56L1080.08 47.9615H1078.14ZM1080.83 44.2115H1081.74C1082.01 44.1903 1082.26 44.0828 1082.46 43.9058C1082.66 43.7289 1082.8 43.4917 1082.85 43.2301C1082.89 43.1224 1082.91 43.0065 1082.9 42.8917C1082.88 42.7768 1082.84 42.6665 1082.78 42.5704C1082.72 42.4742 1082.63 42.3952 1082.53 42.3394C1082.43 42.2837 1082.31 42.2528 1082.2 42.2501H1081.25L1080.83 44.2115Z" fill="#3284AE"/>
<path d="M1101.46 46.125C1101.73 44.751 1103.07 44.3164 1105.06 44.3164C1105.2 43.7044 1104.81 43.5532 1104.14 43.5752C1103.54 43.6059 1102.95 43.7385 1102.4 43.9673L1102.56 42.5942C1103.22 42.3966 1103.9 42.2796 1104.59 42.2461C1105.83 42.2241 1107.19 42.615 1106.87 44.207L1106.11 47.9561H1104.33L1104.45 47.3901C1104.02 47.8193 1103.44 48.0624 1102.83 48.0664C1101.97 48.0654 1101.22 47.52 1101.46 46.125ZM1103.29 46.0381C1103.24 46.1197 1103.21 46.2152 1103.2 46.313C1103.2 46.4108 1103.23 46.5066 1103.28 46.5894C1103.33 46.6722 1103.41 46.7383 1103.5 46.7798C1103.59 46.8212 1103.69 46.8364 1103.78 46.8232C1104 46.833 1104.21 46.7631 1104.38 46.627C1104.55 46.4909 1104.67 46.2976 1104.71 46.083C1104.75 45.908 1104.77 45.755 1104.81 45.583H1104.37C1104.17 45.5623 1103.96 45.5931 1103.77 45.6724C1103.58 45.7516 1103.42 45.8769 1103.29 46.0371L1103.29 46.0381ZM1106.92 47.9561L1108.39 40.7622H1110.21L1108.73 47.9561H1106.92ZM1095.36 47.9561L1096.82 40.7852H1100.12C1100.41 40.7844 1100.7 40.8536 1100.96 40.9873C1101.23 41.121 1101.45 41.3152 1101.62 41.5537C1101.8 41.7923 1101.91 42.0682 1101.95 42.3589C1102 42.6496 1101.97 42.9466 1101.87 43.2251C1101.78 43.8833 1101.45 44.4845 1100.94 44.9175C1100.44 45.3505 1099.79 45.586 1099.13 45.5801H1097.77L1097.27 47.9551L1095.36 47.9561ZM1098.04 44.207H1098.93C1099.2 44.1864 1099.45 44.08 1099.66 43.9033C1099.86 43.7266 1100 43.489 1100.06 43.2261C1100.1 43.117 1100.11 43 1100.1 42.8848C1100.08 42.7695 1100.04 42.6593 1099.97 42.5635C1099.91 42.4676 1099.82 42.3892 1099.72 42.334C1099.62 42.2788 1099.5 42.2484 1099.39 42.2461H1098.44L1098.04 44.207Z" fill="#3CA9C7"/>
<path d="M1018.61 32.2192H1053.59C1054.04 32.2284 1054.47 32.416 1054.78 32.7412C1055.09 33.0664 1055.26 33.5024 1055.25 33.9531V55.6274C1055.26 56.0782 1055.09 56.5137 1054.78 56.8389C1054.47 57.164 1054.04 57.3521 1053.59 57.3613H1018.61C1018.16 57.3521 1017.74 57.164 1017.42 56.8389C1017.11 56.5137 1016.94 56.0782 1016.95 55.6274V33.9531C1016.94 33.5024 1017.11 33.0664 1017.42 32.7412C1017.74 32.416 1018.16 32.2284 1018.61 32.2192Z" fill="#5870BE"/>
<path d="M1033.7 44.786C1033.71 43.0102 1034.23 41.2745 1035.22 39.7982C1036.21 38.3219 1037.61 37.1714 1039.25 36.4921C1040.89 35.8127 1042.69 35.6352 1044.44 35.9818C1046.18 36.3284 1047.78 37.1836 1049.03 38.4393C1050.29 39.695 1051.14 41.2949 1051.49 43.0365C1051.84 44.7781 1051.66 46.5834 1050.98 48.224C1050.3 49.8646 1049.15 51.2666 1047.67 52.2533C1046.2 53.2399 1044.46 53.7668 1042.68 53.767C1041.51 53.767 1040.34 53.5347 1039.25 53.0834C1038.16 52.632 1037.17 51.9706 1036.33 51.1366C1035.5 50.3026 1034.84 49.3126 1034.39 48.223C1033.94 47.1334 1033.7 45.9654 1033.7 44.786Z" fill="#FFAF38"/>
<path d="M1028.93 53.7651C1027.39 53.7649 1025.89 53.3733 1024.55 52.6274C1023.21 51.8815 1022.09 50.8061 1021.29 49.5034C1020.48 48.2007 1020.02 46.7141 1019.96 45.1845C1019.89 43.655 1020.21 42.1331 1020.9 40.7641C1021.58 39.3951 1022.61 38.2245 1023.87 37.3627C1025.14 36.501 1026.6 35.977 1028.13 35.8408C1029.65 35.7046 1031.19 35.9606 1032.59 36.5844C1033.98 37.2083 1035.2 38.1793 1036.12 39.4052H1034.92V40.0053H1036.53C1036.65 40.1963 1036.76 40.3942 1036.87 40.5942H1034.32V41.1943H1037.16C1037.25 41.3943 1037.33 41.5944 1037.4 41.7944H1033.72V42.394H1037.58C1038.07 44.168 1038 46.0483 1037.39 47.7832H1033.72V48.3833H1037.16C1037.07 48.5903 1036.97 48.7831 1036.87 48.9741H1034.32V49.5742H1036.52C1036.39 49.7842 1036.25 49.9853 1036.11 50.1743H1034.92V50.7744H1035.62C1034.77 51.7147 1033.74 52.467 1032.59 52.9824C1031.44 53.4977 1030.19 53.7642 1028.93 53.7651Z" fill="#E63737"/>
<path d="M1019.07 46.4381L1019.62 42.1781L1020.47 42.287L1021.09 45.4326C1021.15 45.7255 1021.19 45.9444 1021.21 46.0893C1021.28 45.9406 1021.39 45.7226 1021.53 45.4355L1022.93 42.6024L1023.69 42.6998L1023.14 46.9598L1022.6 46.89L1023.05 43.3245L1021.36 46.7312L1020.85 46.6659L1020.08 42.8813L1019.62 46.5078L1019.07 46.4381ZM1026.05 46.9457C1025.83 47.0855 1025.63 47.1777 1025.44 47.2224C1025.25 47.2673 1025.06 47.2766 1024.85 47.2503C1024.51 47.2068 1024.26 47.091 1024.1 46.903C1023.94 46.713 1023.88 46.4892 1023.91 46.2315C1023.93 46.0804 1023.98 45.9472 1024.06 45.8319C1024.15 45.715 1024.25 45.6258 1024.37 45.5644C1024.5 45.5033 1024.63 45.4623 1024.77 45.4415C1024.88 45.4275 1025.04 45.4212 1025.25 45.4227C1025.68 45.4265 1026 45.4063 1026.2 45.3622C1026.22 45.2908 1026.22 45.2454 1026.22 45.226C1026.25 45.0129 1026.22 44.8564 1026.13 44.7566C1026.02 44.6213 1025.82 44.5367 1025.56 44.5029C1025.32 44.4713 1025.13 44.4915 1025 44.5635C1024.87 44.6338 1024.77 44.7749 1024.68 44.9866L1024.18 44.8512C1024.25 44.6382 1024.35 44.4718 1024.48 44.3518C1024.6 44.2298 1024.77 44.146 1024.98 44.1001C1025.19 44.0524 1025.43 44.0455 1025.69 44.0796C1025.96 44.1134 1026.17 44.1719 1026.32 44.255C1026.48 44.3381 1026.59 44.4321 1026.66 44.537C1026.72 44.6399 1026.76 44.765 1026.77 44.9124C1026.78 45.0037 1026.77 45.1656 1026.74 45.3981L1026.65 46.0955C1026.59 46.5818 1026.56 46.8912 1026.56 47.0237C1026.57 47.1545 1026.6 47.2833 1026.65 47.4099L1026.1 47.3398C1026.06 47.2243 1026.04 47.093 1026.05 46.9457ZM1026.15 45.7719C1025.95 45.8251 1025.66 45.8544 1025.27 45.8599C1025.05 45.8633 1024.9 45.8786 1024.8 45.906C1024.71 45.9333 1024.63 45.9816 1024.57 46.0509C1024.52 46.1183 1024.48 46.1975 1024.47 46.2886C1024.45 46.4281 1024.49 46.551 1024.58 46.6574C1024.68 46.7641 1024.83 46.8305 1025.03 46.8566C1025.23 46.8824 1025.41 46.8618 1025.58 46.7948C1025.75 46.7258 1025.88 46.6196 1025.98 46.476C1026.05 46.365 1026.1 46.1942 1026.13 45.9637L1026.15 45.7719ZM1027.2 46.545L1027.73 46.53C1027.73 46.7411 1027.79 46.9102 1027.91 47.0376C1028.03 47.1651 1028.21 47.2442 1028.45 47.2748C1028.69 47.3056 1028.87 47.2801 1029 47.1981C1029.13 47.1142 1029.2 47.0064 1029.22 46.8747C1029.24 46.7565 1029.2 46.657 1029.1 46.576C1029.04 46.5203 1028.87 46.4383 1028.59 46.3301C1028.22 46.184 1027.96 46.0665 1027.82 45.9776C1027.69 45.8871 1027.59 45.7748 1027.52 45.6409C1027.46 45.5053 1027.44 45.3619 1027.46 45.2108C1027.48 45.0733 1027.53 44.9504 1027.61 44.8421C1027.68 44.7321 1027.78 44.6453 1027.9 44.5818C1027.99 44.5322 1028.11 44.496 1028.25 44.4732C1028.4 44.4487 1028.55 44.4468 1028.71 44.4674C1028.96 44.4985 1029.16 44.5606 1029.34 44.6537C1029.51 44.7471 1029.64 44.8594 1029.71 44.9907C1029.78 45.1201 1029.82 45.2866 1029.83 45.4904L1029.31 45.4945C1029.3 45.3326 1029.25 45.2 1029.15 45.0964C1029.05 44.9931 1028.9 44.9284 1028.7 44.9023C1028.46 44.8715 1028.28 44.8892 1028.17 44.9555C1028.05 45.0217 1027.99 45.1081 1027.98 45.2147C1027.97 45.2825 1027.98 45.3462 1028.02 45.4059C1028.05 45.4676 1028.11 45.5227 1028.2 45.5712C1028.25 45.5972 1028.4 45.6616 1028.65 45.7641C1029 45.9104 1029.25 46.0248 1029.39 46.1074C1029.53 46.1883 1029.63 46.2941 1029.7 46.4249C1029.77 46.5557 1029.79 46.7103 1029.77 46.8885C1029.74 47.0628 1029.67 47.2209 1029.55 47.3627C1029.43 47.5028 1029.27 47.6032 1029.06 47.6638C1028.86 47.7225 1028.64 47.7363 1028.4 47.7052C1028 47.6538 1027.7 47.5312 1027.51 47.3375C1027.32 47.144 1027.22 46.8799 1027.2 46.545ZM1031.47 47.5536L1031.49 48.0254C1031.34 48.0375 1031.2 48.036 1031.09 48.0211C1030.9 47.9968 1030.75 47.9478 1030.66 47.8744C1030.56 47.8009 1030.5 47.713 1030.47 47.6106C1030.44 47.5064 1030.44 47.2973 1030.48 46.9835L1030.71 45.208L1030.33 45.1588L1030.38 44.752L1030.76 44.8012L1030.86 44.037L1031.42 43.7899L1031.28 44.8679L1031.81 44.9354L1031.76 45.3423L1031.23 45.2748L1031 47.0793C1030.98 47.2285 1030.98 47.3255 1030.99 47.3703C1031 47.4154 1031.03 47.4532 1031.07 47.4836C1031.1 47.5143 1031.16 47.5346 1031.24 47.5445C1031.3 47.552 1031.38 47.555 1031.47 47.5536ZM1034.17 47.3648L1034.7 47.501C1034.57 47.8058 1034.38 48.0306 1034.13 48.1754C1033.88 48.3201 1033.57 48.3695 1033.21 48.3235C1032.76 48.2656 1032.42 48.0811 1032.19 47.77C1031.96 47.4572 1031.88 47.05 1031.95 46.5482C1032.01 46.0291 1032.2 45.6433 1032.5 45.3909C1032.81 45.1385 1033.17 45.0396 1033.6 45.0943C1034.01 45.1473 1034.33 45.331 1034.56 45.6454C1034.78 45.9599 1034.86 46.3719 1034.8 46.8814C1034.79 46.9124 1034.79 46.9587 1034.78 47.0205L1032.47 46.7251C1032.45 47.0666 1032.51 47.3385 1032.66 47.5408C1032.81 47.7431 1033.01 47.8608 1033.27 47.8938C1033.46 47.9185 1033.63 47.8891 1033.78 47.8058C1033.93 47.7224 1034.06 47.5754 1034.17 47.3648ZM1032.56 46.2988L1034.28 46.5199C1034.29 46.2574 1034.25 46.0542 1034.16 45.9105C1034.02 45.6876 1033.82 45.5592 1033.55 45.5251C1033.31 45.4943 1033.1 45.5487 1032.91 45.6884C1032.73 45.8283 1032.61 46.0317 1032.56 46.2988ZM1035.23 48.5119L1035.63 45.4258L1036.1 45.4862L1036.04 45.9541C1036.19 45.7506 1036.32 45.6204 1036.43 45.5636C1036.54 45.5071 1036.66 45.4866 1036.78 45.5023C1036.95 45.5249 1037.13 45.6041 1037.29 45.7398L1037.05 46.202C1036.93 46.11 1036.81 46.0558 1036.68 46.0394C1036.57 46.0247 1036.46 46.0464 1036.36 46.1045C1036.26 46.1606 1036.18 46.2472 1036.13 46.3643C1036.05 46.5428 1035.99 46.7425 1035.96 46.9633L1035.76 48.579L1035.23 48.5119ZM1040.52 47.672L1041.07 47.8867C1040.89 48.3345 1040.63 48.6607 1040.29 48.8653C1039.95 49.0682 1039.56 49.1411 1039.12 49.0842C1038.66 49.0253 1038.3 48.8843 1038.03 48.6613C1037.77 48.4366 1037.59 48.1373 1037.48 47.7634C1037.38 47.3897 1037.35 46.9995 1037.4 46.5927C1037.46 46.149 1037.59 45.7734 1037.8 45.4657C1038.02 45.1563 1038.29 44.9364 1038.62 44.8059C1038.96 44.6738 1039.32 44.6318 1039.69 44.6801C1040.12 44.7347 1040.46 44.8892 1040.73 45.1435C1040.99 45.3978 1041.15 45.7288 1041.22 46.1368L1040.64 46.1963C1040.58 45.8737 1040.47 45.6296 1040.3 45.4641C1040.13 45.2985 1039.9 45.1975 1039.62 45.1609C1039.29 45.1189 1039.01 45.1622 1038.77 45.2908C1038.53 45.4196 1038.35 45.611 1038.22 45.865C1038.1 46.117 1038.02 46.3834 1037.98 46.6643C1037.94 47.0266 1037.95 47.3501 1038.02 47.6347C1038.09 47.9176 1038.23 48.1403 1038.44 48.3025C1038.64 48.4648 1038.87 48.5626 1039.13 48.5959C1039.45 48.6364 1039.73 48.5797 1039.97 48.4256C1040.21 48.2716 1040.4 48.0204 1040.52 47.672ZM1043.58 49.1966C1043.37 49.3364 1043.17 49.4287 1042.98 49.4733C1042.79 49.5183 1042.6 49.5276 1042.39 49.5012C1042.05 49.4577 1041.8 49.3419 1041.64 49.1539C1041.48 48.9639 1041.42 48.7401 1041.45 48.4825C1041.47 48.3314 1041.52 48.1982 1041.6 48.0829C1041.69 47.9659 1041.79 47.8767 1041.91 47.8154C1042.04 47.7542 1042.17 47.7132 1042.31 47.6924C1042.42 47.6784 1042.58 47.6722 1042.79 47.6736C1043.22 47.6774 1043.54 47.6573 1043.74 47.6131C1043.75 47.5417 1043.76 47.4963 1043.76 47.4769C1043.79 47.2638 1043.76 47.1074 1043.67 47.0075C1043.56 46.8722 1043.36 46.7876 1043.1 46.7538C1042.85 46.7222 1042.67 46.7425 1042.54 46.8145C1042.41 46.8848 1042.3 47.0258 1042.22 47.2375L1041.72 47.1021C1041.79 46.8892 1041.89 46.7227 1042.02 46.6027C1042.14 46.4808 1042.31 46.3969 1042.52 46.3511C1042.73 46.3033 1042.97 46.2965 1043.23 46.3305C1043.5 46.3643 1043.71 46.4228 1043.86 46.5059C1044.02 46.5891 1044.13 46.6831 1044.2 46.7879C1044.26 46.8909 1044.3 47.016 1044.31 47.1633C1044.32 47.2547 1044.31 47.4166 1044.28 47.6491L1044.19 48.3465C1044.12 48.8327 1044.1 49.1421 1044.1 49.2746C1044.11 49.4055 1044.14 49.5342 1044.19 49.6608L1043.64 49.5907C1043.6 49.4753 1043.58 49.3439 1043.58 49.1966ZM1043.69 48.0229C1043.49 48.076 1043.2 48.1053 1042.81 48.1108C1042.59 48.1142 1042.44 48.1296 1042.34 48.1569C1042.25 48.1842 1042.17 48.2325 1042.11 48.3019C1042.06 48.3693 1042.02 48.4485 1042.01 48.5395C1041.99 48.679 1042.03 48.802 1042.12 48.9084C1042.22 49.015 1042.36 49.0814 1042.57 49.1075C1042.77 49.1334 1042.95 49.1128 1043.12 49.0457C1043.29 48.9768 1043.42 48.8705 1043.52 48.7269C1043.59 48.6159 1043.64 48.4452 1043.67 48.2147L1043.69 48.0229ZM1044.83 49.7432L1045.23 46.6572L1045.7 46.7176L1045.64 47.1855C1045.78 46.982 1045.91 46.8518 1046.02 46.795C1046.13 46.7384 1046.25 46.718 1046.37 46.7337C1046.55 46.7563 1046.72 46.8355 1046.89 46.9712L1046.65 47.4333C1046.53 47.3414 1046.41 47.2872 1046.28 47.2708C1046.16 47.2561 1046.06 47.2778 1045.96 47.3359C1045.86 47.392 1045.78 47.4786 1045.72 47.5957C1045.64 47.7742 1045.59 47.9739 1045.56 48.1947L1045.35 49.8104L1044.83 49.7432ZM1048.82 50.2553L1048.87 49.8659C1048.63 50.1468 1048.33 50.263 1047.95 50.2142C1047.7 50.1827 1047.48 50.0858 1047.29 49.9236C1047.1 49.7616 1046.97 49.5522 1046.89 49.2954C1046.81 49.0369 1046.78 48.7497 1046.83 48.434C1046.86 48.1259 1046.95 47.8536 1047.09 47.6168C1047.22 47.3782 1047.4 47.2052 1047.62 47.0979C1047.85 46.9906 1048.08 46.9532 1048.34 46.9858C1048.52 47.0096 1048.68 47.0706 1048.82 47.1687C1048.95 47.2648 1049.06 47.3817 1049.13 47.5193L1049.33 45.9908L1049.85 46.0575L1049.3 50.3175L1048.82 50.2553ZM1047.36 48.503C1047.31 48.8982 1047.36 49.2043 1047.5 49.4213C1047.64 49.6384 1047.82 49.7614 1048.05 49.7905C1048.28 49.8198 1048.49 49.7517 1048.67 49.5861C1048.85 49.4189 1048.97 49.1434 1049.02 48.7599C1049.07 48.3375 1049.03 48.0171 1048.89 47.7987C1048.76 47.5802 1048.57 47.4556 1048.33 47.4251C1048.1 47.3952 1047.89 47.4652 1047.71 47.6349C1047.53 47.8048 1047.42 48.0942 1047.36 48.503Z" fill="white"/>
<path d="M960.748 32.417H995.73C995.953 32.4214 996.173 32.47 996.378 32.5596C996.582 32.6491 996.767 32.7779 996.922 32.939C997.077 33.1 997.198 33.2901 997.28 33.498C997.361 33.706 997.4 33.9281 997.396 34.1514V55.8271C997.405 56.2779 997.234 56.7136 996.922 57.0386C996.609 57.3636 996.181 57.5511 995.73 57.5601H960.748C960.297 57.5511 959.868 57.3636 959.556 57.0386C959.244 56.7136 959.073 56.2779 959.082 55.8271V34.1514C959.077 33.9281 959.117 33.706 959.198 33.498C959.28 33.2901 959.401 33.1 959.556 32.939C959.71 32.7779 959.895 32.6491 960.1 32.5596C960.304 32.47 960.525 32.4214 960.748 32.417Z" fill="#353A40"/>
<path d="M981.771 48.9813C981.507 48.8469 981.289 48.6352 981.147 48.3749C980.977 48.0562 980.894 47.6984 980.907 47.3373C980.892 47.0911 980.927 46.8445 981.008 46.6117C981.089 46.3789 981.216 46.1647 981.381 45.9813C981.556 45.8144 981.764 45.6852 981.991 45.6019C982.218 45.5187 982.46 45.4827 982.702 45.497C982.945 45.4813 983.189 45.5155 983.419 45.5975C983.649 45.6796 983.859 45.8077 984.038 45.974C984.201 46.154 984.327 46.3648 984.407 46.5941C984.488 46.8234 984.522 47.0664 984.507 47.309C984.522 47.6606 984.453 48.0108 984.307 48.3309C984.175 48.5915 983.969 48.8076 983.715 48.952C983.418 49.1093 983.084 49.186 982.748 49.1742C982.412 49.1863 982.077 49.1204 981.771 48.9813ZM982.177 46.5643C982.048 46.8027 981.98 47.0693 981.98 47.3402C981.98 47.6112 982.048 47.8778 982.177 48.1161C982.245 48.1899 982.328 48.2486 982.419 48.2889C982.511 48.3292 982.611 48.3505 982.711 48.3505C982.811 48.3505 982.911 48.3292 983.002 48.2889C983.094 48.2486 983.177 48.1899 983.245 48.1161C983.396 47.8688 983.463 47.5786 983.435 47.2899C983.456 47.0294 983.386 46.7697 983.235 46.556C983.169 46.4795 983.086 46.4193 982.993 46.3793C982.901 46.3393 982.8 46.3206 982.699 46.3251C982.599 46.3223 982.501 46.3422 982.41 46.3837C982.32 46.4251 982.24 46.4872 982.177 46.5643ZM972.265 49.1381C972.091 49.1209 971.921 49.0714 971.765 48.9921C971.623 48.9148 971.498 48.8104 971.397 48.6849C971.293 48.5659 971.215 48.427 971.168 48.2763C971.107 48.0819 971.073 47.8799 971.068 47.6762V45.558H972.139V47.726C972.134 47.8084 972.146 47.8912 972.173 47.9691C972.2 48.047 972.243 48.1186 972.298 48.1801C972.419 48.2843 972.574 48.3417 972.734 48.3417C972.894 48.3417 973.049 48.2843 973.17 48.1801C973.225 48.118 973.267 48.0456 973.295 47.9672C973.322 47.8887 973.333 47.8059 973.328 47.723V45.5551H974.399V47.6732C974.399 47.8774 974.366 48.0803 974.299 48.2733C974.237 48.457 974.135 48.6239 973.999 48.7621C973.879 48.8927 973.732 48.9949 973.568 49.0619C973.327 49.1459 973.072 49.186 972.817 49.1801C972.633 49.1764 972.449 49.1621 972.266 49.1371L972.265 49.1381ZM987.404 49.1141L986.104 47.162V49.1141H985.094V45.559H986.094L987.403 47.5253V45.559H988.415V49.1141H987.404ZM977.426 49.1141L976.126 47.162V49.1141H975.116V45.559H976.116L977.424 47.5253V45.559H978.436V49.1141H977.426ZM979.196 49.1049V45.556H980.276V49.1049H979.196ZM970.991 44.1239C970.759 43.884 970.622 43.5691 970.604 43.2362L971.626 43.1713C971.637 43.3099 971.683 43.4432 971.76 43.559C971.816 43.6306 971.888 43.6877 971.97 43.7255C972.053 43.7633 972.143 43.7809 972.234 43.7763C972.362 43.7848 972.489 43.7449 972.589 43.6649C972.627 43.6352 972.657 43.5976 972.678 43.5546C972.699 43.5116 972.71 43.4643 972.711 43.4164C972.712 43.3685 972.701 43.3212 972.681 43.2777C972.661 43.2342 972.632 43.1956 972.595 43.1649C972.429 43.0572 972.241 42.9868 972.045 42.9589C971.679 42.8977 971.334 42.7499 971.038 42.5272C970.94 42.4422 970.863 42.3363 970.811 42.2177C970.759 42.099 970.734 41.9706 970.738 41.8412C970.738 41.6575 970.792 41.4778 970.893 41.3241C971.007 41.1527 971.17 41.0195 971.36 40.9413C971.632 40.8369 971.923 40.7895 972.215 40.8021C972.572 40.7783 972.927 40.8671 973.231 41.056C973.353 41.153 973.454 41.2751 973.526 41.4139C973.597 41.5528 973.639 41.7052 973.647 41.8612L972.635 41.9222C972.622 41.7894 972.561 41.6655 972.465 41.5731C972.363 41.4952 972.236 41.4566 972.108 41.4642C972.007 41.4569 971.907 41.4857 971.826 41.5453C971.796 41.5693 971.772 41.5995 971.755 41.6342C971.739 41.6688 971.731 41.7066 971.731 41.745C971.732 41.775 971.739 41.8043 971.753 41.8309C971.767 41.8576 971.786 41.8812 971.81 41.8993C971.919 41.9688 972.042 42.0131 972.171 42.0292C972.518 42.0935 972.857 42.1989 973.18 42.3431C973.362 42.4304 973.516 42.5673 973.623 42.7382C973.716 42.8974 973.764 43.0788 973.761 43.2631C973.762 43.487 973.698 43.7062 973.576 43.8939C973.451 44.0877 973.271 44.2401 973.059 44.3319C972.794 44.439 972.509 44.4901 972.223 44.4813C971.781 44.5275 971.339 44.3986 970.991 44.1229V44.1239ZM987.405 44.4139L986.105 42.4613V44.4139H985.095V40.8593H986.095L987.404 42.8261V40.8593H988.416V44.4139H987.405ZM983.53 44.4139L982.956 43.327C982.91 43.224 982.843 43.1312 982.761 43.0541C982.684 42.9991 982.592 42.97 982.497 42.9711H982.402V44.4139H981.323V40.8593H983.112C983.369 40.8492 983.625 40.8784 983.873 40.9462C984.047 41.003 984.197 41.1166 984.298 41.2689C984.409 41.44 984.465 41.6412 984.459 41.8451C984.463 42.0233 984.421 42.1997 984.336 42.3563C984.254 42.4987 984.137 42.6177 983.996 42.703C983.879 42.7698 983.751 42.8178 983.619 42.8451C983.718 42.8744 983.812 42.9181 983.899 42.975C983.963 43.0306 984.021 43.0937 984.07 43.163C984.127 43.2314 984.178 43.3053 984.221 43.3832L984.741 44.4139H983.53ZM982.403 42.2982H982.856C982.952 42.2913 983.047 42.2749 983.14 42.2499C983.21 42.2356 983.272 42.1962 983.314 42.139C983.359 42.0796 983.383 42.0067 983.382 41.932C983.385 41.8827 983.377 41.8333 983.359 41.7875C983.34 41.7416 983.311 41.7003 983.275 41.6669C983.155 41.5933 983.015 41.5615 982.875 41.5761H982.403V42.2982ZM977.803 44.4139V40.8593H980.681V41.6181H978.881V42.183H980.553V42.9091H978.881V43.6093H980.736V44.4139H977.803ZM975.151 44.4139V41.7372H974.056V40.8593H977.321V41.7372H976.221V44.4139H975.151ZM967.286 44.4139V40.8593H970.164V41.6181H968.364V42.183H970.035V42.9091H968.356V43.6093H970.209V44.4139H967.286ZM965.119 44.4139L964.51 42.1752L963.903 44.4139H962.85L962.077 40.8593H963.097L963.464 42.849L964.002 40.8593H965.018L965.557 42.8471L965.924 40.8593H966.939L966.173 44.4139H965.119Z" fill="#ECD345"/>
<path d="M993.206 49.1763V40.7964H994.406V49.1763H993.206ZM990.216 49.1763V40.7964H991.416V49.1763H990.216Z" fill="#ECD345"/>
<path d="M10.7321 43.5432C10.7321 40.8692 8.57606 38.7132 5.90206 38.7132C3.24205 38.7132 1.07205 40.8692 1.07205 43.5432C1.07205 46.2032 3.24205 48.3732 5.90206 48.3732C8.57606 48.3732 10.7321 46.2032 10.7321 43.5432ZM10.2981 43.5432C10.2981 45.9652 8.32406 47.9392 5.90206 47.9392C3.48005 47.9392 1.50605 45.9652 1.50605 43.5432C1.50605 41.1212 3.48005 39.1472 5.90206 39.1472C8.32406 39.1472 10.2981 41.1212 10.2981 43.5432ZM7.62406 45.2512C7.26006 45.7412 6.60205 46.0632 5.93006 46.0632C4.67006 46.0632 3.53605 44.9992 3.53605 43.5292C3.53605 42.0172 4.67006 41.0092 5.93006 41.0092C6.58806 41.0092 7.26006 41.3172 7.62406 41.8072L7.97405 41.4712C7.48406 40.8972 6.79805 40.5472 5.93006 40.5472C4.32006 40.5472 3.01805 41.8212 3.01805 43.5292C3.01805 45.2372 4.32006 46.5252 5.93006 46.5252C6.79805 46.5252 7.48406 46.1892 7.98806 45.6012L7.62406 45.2512ZM22.1299 48.2192V47.1832H17.5519C20.1559 45.1252 22.0879 43.3892 22.0879 41.4852C22.0879 39.6232 20.5059 38.7412 18.9519 38.7412C17.6359 38.7412 16.4179 39.2732 15.7039 40.2112L16.4179 40.9532C16.9639 40.2532 17.8319 39.7772 18.9519 39.7772C19.9179 39.7772 20.8979 40.2952 20.8979 41.4852C20.8979 43.0952 19.0779 44.6492 15.7179 47.2952V48.2192H22.1299ZM27.4764 48.3872C30.0244 48.3872 31.0464 45.8252 31.0464 43.5572C31.0464 41.2752 30.0244 38.7412 27.4764 38.7412C24.9144 38.7412 23.9064 41.2752 23.9064 43.5572C23.9064 45.8252 24.9144 48.3872 27.4764 48.3872ZM27.4764 47.3512C25.6984 47.3512 25.0964 45.4192 25.0964 43.5572C25.0964 41.6952 25.6984 39.7772 27.4764 39.7772C29.2544 39.7772 29.8564 41.6952 29.8564 43.5572C29.8564 45.4192 29.2544 47.3512 27.4764 47.3512ZM35.4186 48.2192V38.8812H34.3966L32.0586 41.2892L32.7586 42.0032L34.2566 40.4212V48.2192H35.4186ZM40.5828 48.3872C42.4168 48.3872 43.9288 47.4352 43.9288 45.8532C43.9288 44.6072 42.8648 43.7532 41.7028 43.4032C42.7808 43.0952 43.7888 42.3952 43.7888 41.1632C43.7888 39.4832 42.1228 38.7412 40.5828 38.7412C39.0288 38.7412 37.3908 39.4832 37.3908 41.1632C37.3908 42.3952 38.3848 43.0952 39.4628 43.4032C38.3008 43.7532 37.2368 44.6072 37.2368 45.8532C37.2368 47.4492 38.7348 48.3872 40.5828 48.3872ZM40.5828 42.9272C40.0228 42.8292 38.5528 42.4512 38.5528 41.3172C38.5528 40.3512 39.4488 39.7772 40.5828 39.7772C41.7028 39.7772 42.6128 40.3512 42.6128 41.3172C42.6128 42.4512 41.1568 42.8292 40.5828 42.9272ZM40.5828 47.3512C39.4208 47.3512 38.3988 46.7352 38.3988 45.7272C38.3988 44.5092 40.0088 43.9912 40.5828 43.9212C41.1568 43.9912 42.7528 44.5092 42.7528 45.7272C42.7528 46.7352 41.7308 47.3512 40.5828 47.3512ZM55.4629 48.2192V47.1832H50.5069V43.9632H55.3649V42.9272H50.5069V39.9172H55.4629V38.8812H49.3449V48.2192H55.4629ZM60.2556 48.3872C61.4876 48.3872 62.2156 47.8832 62.7336 47.2112L62.0336 46.5672C61.5856 47.1692 61.0116 47.4492 60.3116 47.4492C58.8696 47.4492 57.9736 46.3292 57.9736 44.8312C57.9736 43.3332 58.8696 42.2272 60.3116 42.2272C61.0116 42.2272 61.5856 42.4932 62.0336 43.1092L62.7336 42.4652C62.2156 41.7932 61.4876 41.2892 60.2556 41.2892C58.2396 41.2892 56.8816 42.8292 56.8816 44.8312C56.8816 46.8472 58.2396 48.3872 60.2556 48.3872ZM67.1593 48.3872C69.2173 48.3872 70.5053 46.7912 70.5053 44.8312C70.5053 42.8712 69.2173 41.2892 67.1593 41.2892C65.1013 41.2892 63.8133 42.8712 63.8133 44.8312C63.8133 46.7912 65.1013 48.3872 67.1593 48.3872ZM67.1593 47.4492C65.7173 47.4492 64.9053 46.2172 64.9053 44.8312C64.9053 43.4592 65.7173 42.2272 67.1593 42.2272C68.6013 42.2272 69.3993 43.4592 69.3993 44.8312C69.3993 46.2172 68.6013 47.4492 67.1593 47.4492ZM81.429 48.2192V43.3332C81.429 41.9752 80.771 41.2892 79.539 41.2892C78.559 41.2892 77.649 41.9332 77.271 42.5492C77.075 41.8492 76.487 41.2892 75.451 41.2892C74.457 41.2892 73.547 42.0032 73.267 42.4372V41.4572H72.217V48.2192H73.267V43.2772C73.631 42.7312 74.359 42.2272 75.045 42.2272C75.927 42.2272 76.291 42.7732 76.291 43.6272V48.2192H77.341V43.2632C77.691 42.7312 78.433 42.2272 79.133 42.2272C80.001 42.2272 80.379 42.7732 80.379 43.6272V48.2192H81.429ZM92.7356 48.2192V43.3332C92.7356 41.9752 92.0776 41.2892 90.8456 41.2892C89.8656 41.2892 88.9556 41.9332 88.5776 42.5492C88.3816 41.8492 87.7936 41.2892 86.7576 41.2892C85.7636 41.2892 84.8536 42.0032 84.5736 42.4372V41.4572H83.5236V48.2192H84.5736V43.2772C84.9376 42.7312 85.6656 42.2272 86.3516 42.2272C87.2336 42.2272 87.5976 42.7732 87.5976 43.6272V48.2192H88.6476V43.2632C88.9976 42.7312 89.7396 42.2272 90.4396 42.2272C91.3076 42.2272 91.6856 42.7732 91.6856 43.6272V48.2192H92.7356ZM97.8823 48.3872C98.9883 48.3872 99.8983 48.0232 100.57 47.3512L100.066 46.6652C99.5343 47.2112 98.7503 47.5192 97.9803 47.5192C96.5243 47.5192 95.6283 46.4552 95.5443 45.1812H101.018V44.9152C101.018 42.8852 99.8143 41.2892 97.7703 41.2892C95.8383 41.2892 94.4383 42.8712 94.4383 44.8312C94.4383 46.9452 95.8803 48.3872 97.8823 48.3872ZM99.9823 44.4112H95.5443C95.6003 43.3752 96.3143 42.1572 97.7563 42.1572C99.2963 42.1572 99.9683 43.4032 99.9823 44.4112ZM103.769 48.2192V43.4312C104.077 42.8852 104.959 42.3532 105.603 42.3532C105.771 42.3532 105.897 42.3672 106.023 42.3952V41.3172C105.099 41.3172 104.315 41.8352 103.769 42.5492V41.4572H102.719V48.2192H103.769ZM110.322 48.3872C111.554 48.3872 112.282 47.8832 112.8 47.2112L112.1 46.5672C111.652 47.1692 111.078 47.4492 110.378 47.4492C108.936 47.4492 108.04 46.3292 108.04 44.8312C108.04 43.3332 108.936 42.2272 110.378 42.2272C111.078 42.2272 111.652 42.4932 112.1 43.1092L112.8 42.4652C112.282 41.7932 111.554 41.2892 110.322 41.2892C108.306 41.2892 106.948 42.8292 106.948 44.8312C106.948 46.8472 108.306 48.3872 110.322 48.3872ZM117.324 48.3872C118.43 48.3872 119.34 48.0232 120.012 47.3512L119.508 46.6652C118.976 47.2112 118.192 47.5192 117.422 47.5192C115.966 47.5192 115.07 46.4552 114.986 45.1812H120.46V44.9152C120.46 42.8852 119.256 41.2892 117.212 41.2892C115.28 41.2892 113.88 42.8712 113.88 44.8312C113.88 46.9452 115.322 48.3872 117.324 48.3872ZM119.424 44.4112H114.986C115.042 43.3752 115.756 42.1572 117.198 42.1572C118.738 42.1572 119.41 43.4032 119.424 44.4112ZM127.478 48.3872C128.094 48.3872 128.472 48.2052 128.738 47.9532L128.43 47.1692C128.29 47.3232 128.01 47.4492 127.716 47.4492C127.254 47.4492 127.03 47.0852 127.03 46.5812V42.3812H128.402V41.4572H127.03V39.6092H125.98V41.4572H124.86V42.3812H125.98V46.8052C125.98 47.8132 126.484 48.3872 127.478 48.3872ZM135.513 48.2192V43.4452C135.513 41.9752 134.771 41.2892 133.357 41.2892C132.335 41.2892 131.411 41.8772 130.935 42.4372V38.8812H129.885V48.2192H130.935V43.2772C131.341 42.7312 132.125 42.2272 132.937 42.2272C133.847 42.2272 134.463 42.5772 134.463 43.7672V48.2192H135.513ZM140.662 48.3872C141.768 48.3872 142.678 48.0232 143.35 47.3512L142.846 46.6652C142.314 47.2112 141.53 47.5192 140.76 47.5192C139.304 47.5192 138.408 46.4552 138.324 45.1812H143.798V44.9152C143.798 42.8852 142.594 41.2892 140.55 41.2892C138.618 41.2892 137.218 42.8712 137.218 44.8312C137.218 46.9452 138.66 48.3872 140.662 48.3872ZM142.762 44.4112H138.324C138.38 43.3752 139.094 42.1572 140.536 42.1572C142.076 42.1572 142.748 43.4032 142.762 44.4112ZM154.71 48.2192V43.3332C154.71 41.9752 154.052 41.2892 152.82 41.2892C151.84 41.2892 150.93 41.9332 150.552 42.5492C150.356 41.8492 149.768 41.2892 148.732 41.2892C147.738 41.2892 146.828 42.0032 146.548 42.4372V41.4572H145.498V48.2192H146.548V43.2772C146.912 42.7312 147.64 42.2272 148.326 42.2272C149.208 42.2272 149.572 42.7732 149.572 43.6272V48.2192H150.622V43.2632C150.972 42.7312 151.714 42.2272 152.414 42.2272C153.282 42.2272 153.66 42.7732 153.66 43.6272V48.2192H154.71ZM159.857 48.3872C160.963 48.3872 161.873 48.0232 162.545 47.3512L162.041 46.6652C161.509 47.2112 160.725 47.5192 159.955 47.5192C158.499 47.5192 157.603 46.4552 157.519 45.1812H162.993V44.9152C162.993 42.8852 161.789 41.2892 159.745 41.2892C157.813 41.2892 156.413 42.8712 156.413 44.8312C156.413 46.9452 157.855 48.3872 159.857 48.3872ZM161.957 44.4112H157.519C157.575 43.3752 158.289 42.1572 159.731 42.1572C161.271 42.1572 161.943 43.4032 161.957 44.4112ZM169.353 46.3852V43.3192C169.717 42.7312 170.543 42.2272 171.369 42.2272C172.741 42.2272 173.553 43.3472 173.553 44.8452C173.553 46.3432 172.741 47.4492 171.369 47.4492C170.543 47.4492 169.717 46.9732 169.353 46.3852ZM169.353 48.2192V47.2112C169.857 47.8972 170.683 48.3872 171.635 48.3872C173.399 48.3872 174.645 47.0432 174.645 44.8452C174.645 42.6892 173.399 41.2892 171.635 41.2892C170.711 41.2892 169.899 41.7372 169.353 42.4792V38.8812H168.303V48.2192H169.353ZM175.978 50.8652C176.174 50.9212 176.524 50.9632 176.748 50.9632C177.644 50.9492 178.33 50.5712 178.736 49.5912L182.124 41.4572H180.976L178.736 47.0012L176.482 41.4572H175.348L178.176 48.2892L177.728 49.3112C177.49 49.8712 177.182 50.0252 176.72 50.0252C176.552 50.0252 176.3 49.9832 176.146 49.9132L175.978 50.8652ZM193.73 48.2192L195.886 41.4572H194.794L193.142 46.8472L191.364 41.4572H190.468L188.69 46.8472L187.038 41.4572H185.946L188.102 48.2192H189.152L190.916 42.7872L192.68 48.2192H193.73ZM204.012 48.2192L206.168 41.4572H205.076L203.424 46.8472L201.646 41.4572H200.75L198.972 46.8472L197.32 41.4572H196.228L198.384 48.2192H199.434L201.198 42.7872L202.962 48.2192H204.012ZM214.293 48.2192L216.449 41.4572H215.357L213.705 46.8472L211.927 41.4572H211.031L209.253 46.8472L207.601 41.4572H206.509L208.665 48.2192H209.715L211.479 42.7872L213.243 48.2192H214.293ZM217.617 48.3592C218.037 48.3592 218.387 48.0092 218.387 47.5892C218.387 47.1692 218.037 46.8192 217.617 46.8192C217.197 46.8192 216.847 47.1692 216.847 47.5892C216.847 48.0092 217.197 48.3592 217.617 48.3592ZM221.333 46.3852V43.3192C221.697 42.7312 222.523 42.2272 223.349 42.2272C224.721 42.2272 225.533 43.3472 225.533 44.8452C225.533 46.3432 224.721 47.4492 223.349 47.4492C222.523 47.4492 221.697 46.9732 221.333 46.3852ZM221.333 48.2192V47.2112C221.837 47.8972 222.663 48.3872 223.615 48.3872C225.379 48.3872 226.625 47.0432 226.625 44.8452C226.625 42.6892 225.379 41.2892 223.615 41.2892C222.691 41.2892 221.879 41.7372 221.333 42.4792V38.8812H220.283V48.2192H221.333ZM228.854 40.4912C229.246 40.4912 229.568 40.1832 229.568 39.7912C229.568 39.3992 229.246 39.0772 228.854 39.0772C228.476 39.0772 228.154 39.3992 228.154 39.7912C228.154 40.1832 228.476 40.4912 228.854 40.4912ZM229.386 48.2192V41.4572H228.336V48.2192H229.386ZM233.623 48.3872C235.373 48.3872 236.283 47.4772 236.283 46.3432C236.283 43.7112 232.097 44.6912 232.097 43.2072C232.097 42.6052 232.671 42.1432 233.595 42.1432C234.463 42.1432 235.205 42.5072 235.611 42.9972L236.101 42.2692C235.555 41.7232 234.743 41.2892 233.595 41.2892C231.985 41.2892 231.075 42.1852 231.075 43.2352C231.075 45.7412 235.261 44.7332 235.261 46.3712C235.261 47.0432 234.701 47.5332 233.665 47.5332C232.741 47.5332 231.887 47.0852 231.439 46.5672L230.893 47.3232C231.579 48.0512 232.517 48.3872 233.623 48.3872ZM241.04 48.3872C242.146 48.3872 243.056 48.0232 243.728 47.3512L243.224 46.6652C242.692 47.2112 241.908 47.5192 241.138 47.5192C239.682 47.5192 238.786 46.4552 238.702 45.1812H244.176V44.9152C244.176 42.8852 242.972 41.2892 240.928 41.2892C238.996 41.2892 237.596 42.8712 237.596 44.8312C237.596 46.9452 239.038 48.3872 241.04 48.3872ZM243.14 44.4112H238.702C238.758 43.3752 239.472 42.1572 240.914 42.1572C242.454 42.1572 243.126 43.4032 243.14 44.4112ZM251.491 48.2192V43.4732C251.491 42.0032 250.749 41.2892 249.335 41.2892C248.327 41.2892 247.403 41.8772 246.927 42.4372V41.4572H245.877V48.2192H246.927V43.2772C247.319 42.7312 248.103 42.2272 248.929 42.2272C249.839 42.2272 250.441 42.6052 250.441 43.7952V48.2192H251.491ZM254.638 46.3852V43.3192C255.002 42.7312 255.828 42.2272 256.654 42.2272C258.026 42.2272 258.838 43.3472 258.838 44.8452C258.838 46.3432 258.026 47.4492 256.654 47.4492C255.828 47.4492 255.002 46.9732 254.638 46.3852ZM254.638 48.2192V47.2112C255.142 47.8972 255.968 48.3872 256.92 48.3872C258.684 48.3872 259.93 47.0432 259.93 44.8452C259.93 42.6892 258.684 41.2892 256.92 41.2892C255.996 41.2892 255.184 41.7372 254.638 42.4792V38.8812H253.588V48.2192H254.638ZM266.919 48.2192V43.5712C266.919 41.9332 265.729 41.2892 264.301 41.2892C263.195 41.2892 262.327 41.6532 261.599 42.4092L262.089 43.1372C262.691 42.4932 263.349 42.1992 264.161 42.1992C265.141 42.1992 265.869 42.7172 265.869 43.6272V44.8452C265.323 44.2152 264.553 43.9212 263.629 43.9212C262.481 43.9212 261.263 44.6352 261.263 46.1472C261.263 47.6172 262.481 48.3872 263.629 48.3872C264.539 48.3872 265.309 48.0652 265.869 47.4492V48.2192H266.919ZM264.007 47.6312C263.027 47.6312 262.341 47.0152 262.341 46.1612C262.341 45.2932 263.027 44.6772 264.007 44.6772C264.749 44.6772 265.463 44.9572 265.869 45.5172V46.7912C265.463 47.3512 264.749 47.6312 264.007 47.6312ZM272.076 48.3872C273.182 48.3872 274.092 48.0232 274.764 47.3512L274.26 46.6652C273.728 47.2112 272.944 47.5192 272.174 47.5192C270.718 47.5192 269.822 46.4552 269.738 45.1812H275.212V44.9152C275.212 42.8852 274.008 41.2892 271.964 41.2892C270.032 41.2892 268.632 42.8712 268.632 44.8312C268.632 46.9452 270.074 48.3872 272.076 48.3872ZM274.176 44.4112H269.738C269.794 43.3752 270.508 42.1572 271.95 42.1572C273.49 42.1572 274.162 43.4032 274.176 44.4112ZM279.866 48.2192L282.68 41.4572H281.532L279.292 47.0012L277.038 41.4572H275.904L278.718 48.2192H279.866ZM283.392 48.3592C283.812 48.3592 284.162 48.0092 284.162 47.5892C284.162 47.1692 283.812 46.8192 283.392 46.8192C282.972 46.8192 282.622 47.1692 282.622 47.5892C282.622 48.0092 282.972 48.3592 283.392 48.3592ZM288.945 48.3872C290.177 48.3872 290.905 47.8832 291.423 47.2112L290.723 46.5672C290.275 47.1692 289.701 47.4492 289.001 47.4492C287.559 47.4492 286.663 46.3292 286.663 44.8312C286.663 43.3332 287.559 42.2272 289.001 42.2272C289.701 42.2272 290.275 42.4932 290.723 43.1092L291.423 42.4652C290.905 41.7932 290.177 41.2892 288.945 41.2892C286.929 41.2892 285.571 42.8292 285.571 44.8312C285.571 46.8472 286.929 48.3872 288.945 48.3872ZM295.849 48.3872C297.907 48.3872 299.195 46.7912 299.195 44.8312C299.195 42.8712 297.907 41.2892 295.849 41.2892C293.791 41.2892 292.503 42.8712 292.503 44.8312C292.503 46.7912 293.791 48.3872 295.849 48.3872ZM295.849 47.4492C294.407 47.4492 293.595 46.2172 293.595 44.8312C293.595 43.4592 294.407 42.2272 295.849 42.2272C297.291 42.2272 298.089 43.4592 298.089 44.8312C298.089 46.2172 297.291 47.4492 295.849 47.4492ZM310.118 48.2192V43.3332C310.118 41.9752 309.46 41.2892 308.228 41.2892C307.248 41.2892 306.338 41.9332 305.96 42.5492C305.764 41.8492 305.176 41.2892 304.14 41.2892C303.146 41.2892 302.236 42.0032 301.956 42.4372V41.4572H300.906V48.2192H301.956V43.2772C302.32 42.7312 303.048 42.2272 303.734 42.2272C304.616 42.2272 304.98 42.7732 304.98 43.6272V48.2192H306.03V43.2632C306.38 42.7312 307.122 42.2272 307.822 42.2272C308.69 42.2272 309.068 42.7732 309.068 43.6272V48.2192H310.118Z" fill="#C1C8CE"/>
<defs>
<linearGradient id="paint0_linear_8_525" x1="1152.35" y1="57.3613" x2="1152.35" y2="32.2192" gradientUnits="userSpaceOnUse">
<stop stop-color="#E59703"/>
<stop offset="0.231" stop-color="#E59703"/>
<stop offset="0.234" stop-color="white"/>
<stop offset="0.761" stop-color="white"/>
<stop offset="0.766" stop-color="#5457BB"/>
<stop offset="1" stop-color="#5457BB"/>
</linearGradient>
</defs>
</svg>
